<?xml version="1.0" encoding="utf-8"?>
<!-- Generator: Adobe Illustrator 17.0.2, SVG Export Plug-In . SVG Version: 6.00 Build 0)  -->
<!DOCTYPE svg PUBLIC "-//W3C//DTD SVG 1.1//EN" "http://www.w3.org/Graphics/SVG/1.1/DTD/svg11.dtd">
<svg version="1.1" id="Layer_1" xmlns="http://www.w3.org/2000/svg" xmlns:xlink="http://www.w3.org/1999/xlink" x="0px" y="0px"
	 width="32px" height="32px" viewBox="0 0 32 32" enable-background="new 0 0 32 32" xml:space="preserve">
<path fill="#BDC3C7" d="M9.298,32h13.403C25.311,30.89,27,29.291,27,28H5C5,29.291,6.689,30.89,9.298,32z"/>
<path fill="#95A5A6" d="M9.298,32h13.403c1.347-0.573,2.441-1.276,3.192-2H6.106C6.857,30.724,7.952,31.427,9.298,32z"/>
<path fill="#E74C3C" d="M19,21.328c0.828,0,1-0.552,1-1.08c0-1.28-1-1.171-1-3.967c0-1.315,1-2.322,1-3.099
	C20,12.047,18.907,12,17.873,12c-3.114,0-5.138-1-5.873-1c-0.625,0-1,0.234-1,1c0,0.68,1,1.841,1,4c0,7.474-1.31,7.33-1.31,8.615
	C10.69,25.295,11.32,26,12,26c0,1.444,0,2,0,2h7V21.328z"/>
<path fill="#F1C40F" d="M16,0c0,0-4,4.196-4,6.275C12,8.219,13.571,9.8,15.58,10c0.162,0,0.498,0,0.841,0
	C18.429,9.8,20,8.219,20,6.275C20,4.196,16,0,16,0z"/>
<path fill="#FFF99D" d="M16,4.808c0,0,2.084,2.186,2.084,3.27c0,0.948-0.714,1.739-1.664,1.922H15.58
	c-0.95-0.183-1.664-0.974-1.664-1.922C13.916,6.995,16,4.808,16,4.808"/>
<path fill="#C0392B" d="M19,22.117c0,0-1.374-0.104-1.374-2.463c0,1.779,1.374,1.659,1.374,1.659V22.117z"/>
<path fill="#C0392B" d="M12,26.726c0,0,1.374-0.104,1.374-2.463c0,1.779-1.374,1.659-1.374,1.659V26.726z"/>
</svg>
