<?xml version="1.0" encoding="utf-8"?>
<!-- Generator: Adobe Illustrator 17.0.2, SVG Export Plug-In . SVG Version: 6.00 Build 0)  -->
<!DOCTYPE svg PUBLIC "-//W3C//DTD SVG 1.1//EN" "http://www.w3.org/Graphics/SVG/1.1/DTD/svg11.dtd">
<svg version="1.1" id="Layer_1" xmlns="http://www.w3.org/2000/svg" xmlns:xlink="http://www.w3.org/1999/xlink" x="0px" y="0px"
	 width="32px" height="32px" viewBox="0 0 32 32" enable-background="new 0 0 32 32" xml:space="preserve">
<path fill="#27AE60" d="M29.323,6.102l1.961-5.27l-5.424,1.841l-2.804-2.543c0,0-1.327,4.287-2.485,7.372
	c-0.237,0.631-0.189,1.325,0.38,1.689c0.572,0.368,2.508,2.272,2.972,2.272c0.174,0,0.351-0.037,0.518-0.115
	c0.034-0.014,7.45-2.51,7.45-2.51L29.323,6.102z"/>
<path fill="#219452" d="M23.924,11.462c0.174,0,0.351-0.037,0.518-0.115c0.034-0.014,7.45-2.51,7.45-2.51l-1.228-1.307
	C30.664,7.529,23.46,11.462,23.924,11.462z"/>
<path fill="#219452" d="M25.861,2.672l-1.41-1.279l-2.7,6.742c0,0-1.008,0.921-0.799,1.054C21.524,9.558,25.861,2.672,25.861,2.672z
	"/>
<polygon fill="#219452" points="23.018,10.084 31.285,0.832 29.323,6.102 24.717,9.594 "/>
<path fill="#27AE60" d="M2.677,25.898l-1.961,5.27l5.424-1.841l2.804,2.543c0,0,1.327-4.287,2.485-7.372
	c0.237-0.631,0.189-1.325-0.38-1.689c-0.572-0.368-2.508-2.272-2.972-2.272c-0.174,0-0.351,0.037-0.518,0.115
	c-0.034,0.014-7.45,2.51-7.45,2.51L2.677,25.898z"/>
<path fill="#219452" d="M7.533,30.592l1.41,1.279c0,0,1.327-4.287,2.485-7.372c0.237-0.631,0.189-1.325-0.38-1.689L7.533,30.592z"/>
<polygon fill="#219452" points="2.677,25.898 8.829,21.018 8.207,20.92 1.505,24.651 "/>
<polygon fill="#219452" points="8.982,21.916 0.715,31.168 6.171,29.279 9.688,22.654 "/>
<path fill="#E74C3C" d="M25.136,9.34l-2.46-2.46c-0.921-0.921-2.815-1.02-3.587-1.02c-1.582,0-5.651,0.388-9.245,3.983
	c-2.637,2.636-3.554,5.519-3.858,7.472c-0.367,2.347-0.024,4.442,0.871,5.338l2.459,2.459c0.923,0.923,2.825,1.023,3.599,1.023
	c1.583,0,5.653-0.388,9.242-3.977c2.637-2.636,3.552-5.522,3.855-7.478C26.374,12.331,26.03,10.235,25.136,9.34z"/>
<polygon fill="#FFFFFF" points="21.292,17.911 20.301,19.628 16.525,16.91 16.991,21.538 15.009,21.538 15.462,17.031 
	11.699,19.628 10.708,17.911 14.733,16 10.708,14.089 11.699,12.372 15.366,14.902 15.009,10.462 16.991,10.462 16.624,15.019 
	20.301,12.372 21.292,14.089 17.051,16 "/>
</svg>
