<?xml version="1.0" encoding="utf-8"?>
<!-- Generator: Adobe Illustrator 17.0.2, SVG Export Plug-In . SVG Version: 6.00 Build 0)  -->
<!DOCTYPE svg PUBLIC "-//W3C//DTD SVG 1.1//EN" "http://www.w3.org/Graphics/SVG/1.1/DTD/svg11.dtd">
<svg version="1.1" id="Layer_1" xmlns="http://www.w3.org/2000/svg" xmlns:xlink="http://www.w3.org/1999/xlink" x="0px" y="0px"
	 width="32px" height="32px" viewBox="0 0 32 32" enable-background="new 0 0 32 32" xml:space="preserve">
<path fill="#FFF99D" d="M23.75,14.582L7.092,31.24l-2.767-2.718l16.683-16.684c0.826-0.826,1.28-1.923,1.28-3.09
	c0-1.167-0.455-2.265-1.28-3.091c-0.79-0.79-1.917-1.243-3.09-1.243c-1.174,0-2.3,0.453-3.09,1.243L14.286,6.2L11.56,3.444
	l0.526-0.521l0.205-0.206C13.823,1.285,15.81,0.5,17.918,0.5c2.203,0,4.274,0.858,5.832,2.416c1.558,1.558,2.417,3.629,2.417,5.833
	S25.308,13.024,23.75,14.582z"/>
<g>
	<path fill="#F1C40F" d="M23.75,2.916c-0.168-0.168-0.913-0.59-1.092-0.742c1.254,1.485,2.009,3.609,2.009,5.574
		c0,2.203-1.112,4.656-2.242,5.868L5.954,30.085l1.138,1.155L23.75,14.582c1.558-1.558,2.417-3.629,2.417-5.833
		S25.308,4.474,23.75,2.916z"/>
	<path fill="#F1C40F" d="M14.286,6.2l0.542-0.541c0.79-0.79,1.916-1.243,3.09-1.243c0.934,0,1.829,0.297,2.558,0.812
		c-0.142-0.199-0.292-0.393-0.468-0.569c-0.79-0.79-1.917-1.243-3.09-1.243c-1.174,0-2.3,0.453-3.09,1.243l-0.536,0.536L14.286,6.2z
		"/>
</g>
<g>
	<path fill="#E74C3C" d="M21.513,7.326c0.119,0.3,0.187,0.617,0.228,0.941l4.915,0.702c0.002-0.074,0.011-0.146,0.011-0.22
		c0-1.207-0.247-2.375-0.71-3.452L21.513,7.326z"/>
	<polygon fill="#E74C3C" points="17.785,14.355 15.198,16.942 21.234,17.804 23.822,15.217 	"/>
	<polygon fill="#E74C3C" points="13.473,18.667 10.886,21.254 16.922,22.116 19.51,19.529 	"/>
	<polygon fill="#E74C3C" points="15.198,23.841 9.161,22.979 6.574,25.566 12.611,26.429 	"/>
	<path fill="#E74C3C" d="M21.503,10.204c-0.192,0.473-0.477,0.909-0.849,1.281L19.51,12.63l5.778,0.826
		c0.505-0.788,0.874-1.648,1.102-2.553L21.503,10.204z"/>
	<path fill="#E74C3C" d="M4.589,27.726c-0.154,0.43-0.067,0.927,0.278,1.272c0.476,0.476,1.249,1.249,1.725,1.725
		c0.476,0.476,1.249,0.476,1.725,0l2.156-2.156L4.589,27.726z"/>
	<path fill="#E74C3C" d="M14.236,0.819c-0.918,0.427-1.767,1.006-2.504,1.743l0.004,0.004c-0.007,0.007-0.017,0.009-0.024,0.016
		c-0.476,0.476-0.476,1.249,0,1.725c0.476,0.476,1.249,1.249,1.725,1.725c0.455,0.455,1.174,0.462,1.653,0.047L14.236,0.819z"/>
	<path fill="#E74C3C" d="M19.298,5.164c0.363,0.132,0.699,0.327,1.009,0.567l4.673-2.133c-0.266-0.362-0.552-0.712-0.876-1.036
		c-0.644-0.644-1.371-1.171-2.156-1.579L19.298,5.164z"/>
	<path fill="#E74C3C" d="M16.884,4.948c0.062-0.016,0.14,0.073,0.203,0.06l2.997-4.729C19.383,0.102,18.659,0,17.918,0
		c-0.615,0-1.22,0.067-1.808,0.19L16.884,4.948z"/>
</g>
<g>
	<g>
		<path fill="#E74C3C" d="M17.918,1L17.918,1c2.069,0,4.015,0.806,5.478,2.27c1.464,1.463,2.27,3.409,2.27,5.479
			s-0.806,4.016-2.27,5.479L7.089,30.536l-2.054-2.017l16.326-16.327c0.92-0.92,1.427-2.143,1.427-3.444
			c0-1.301-0.507-2.524-1.427-3.444c-0.883-0.883-2.138-1.389-3.443-1.389c-1.305,0-2.56,0.507-3.443,1.39l-0.186,0.186
			l-2.021-2.044l0.16-0.158l0.355-0.343C14.199,1.688,16.006,1,17.918,1 M17.918,0c-2.337,0-4.534,0.91-6.186,2.562l0.004,0.004
			c-0.007,0.007-0.882,0.874-0.882,0.874l3.431,3.469l0.897-0.897c0.731-0.731,1.734-1.097,2.736-1.097
			c1.003,0,2.005,0.366,2.736,1.096c0.731,0.731,1.134,1.703,1.134,2.737c0,1.033-0.403,2.005-1.134,2.736l-17.04,17.04l3.481,3.418
			l17.008-17.009c1.653-1.653,2.563-3.849,2.563-6.186c0-2.337-0.91-4.534-2.563-6.186C22.452,0.91,20.255,0,17.918,0L17.918,0z"/>
	</g>
</g>
<g>
	<g>
		<path fill="#C0392B" d="M16.885,19.154l2.625,0.375l-1.485,1.485l-1.103,1.103l-2.625-0.375L16.885,19.154z M17.087,5.008
			l0.924-1.459c-0.144-0.064-0.777-0.134-1.376-0.134l0.249,1.633C16.89,5.047,17.03,5.02,17.087,5.008z M5.581,30.458
			c0.232,0.232,1.512,1.488,1.512,1.488l0.894-0.894l2.486-2.486l-2.625-0.375L5.581,30.458z M9.986,26.054l2.625,0.375l2.587-2.587
			l-2.625-0.375L9.986,26.054z M18.609,17.429l2.625,0.375l2.587-2.587l-2.625-0.375L18.609,17.429z M23.867,4.106l1.113-0.508
			c-0.266-0.362-0.552-0.712-0.876-1.036c-0.287-0.287-0.597-0.543-0.916-0.784c-0.099-0.074-0.2-0.143-0.302-0.213
			c-0.231-0.159-0.468-0.305-0.712-0.441c-0.078-0.043-0.3-0.234-1.424-0.657C20.751,0.467,22.797,1.609,23.867,4.106z
			 M26.621,7.859c-0.004-0.036-0.012-0.071-0.016-0.108c-0.03-0.26-0.067-0.519-0.12-0.774c-0.002-0.011-0.006-0.021-0.008-0.032
			c-0.12-0.567-0.294-1.119-0.521-1.648L24.484,5.97c0.119,0.579,0.183,1.174,0.183,1.779c0,0.313-0.019,0.622-0.051,0.929
			l2.04,0.292c0.002-0.074,0.011-0.146,0.011-0.22C26.667,8.449,26.651,8.153,26.621,7.859z M22.827,13.104l2.461,0.352
			c0.505-0.787,0.874-1.648,1.102-2.553l-2.203-0.315C23.878,11.492,23.422,12.34,22.827,13.104z M15.09,6.079L14.748,3.97
			c-0.674,0.333-1.021,0.601-1.566,1.042L12.8,5.394c0.232,0.232,1.5,1.5,1.5,1.5S14.704,6.484,15.09,6.079z"/>
	</g>
</g>
</svg>
