<?xml version="1.0" encoding="utf-8"?>
<!-- Generator: Adobe Illustrator 17.0.2, SVG Export Plug-In . SVG Version: 6.00 Build 0)  -->
<!DOCTYPE svg PUBLIC "-//W3C//DTD SVG 1.1//EN" "http://www.w3.org/Graphics/SVG/1.1/DTD/svg11.dtd">
<svg version="1.1" id="Layer_1" xmlns="http://www.w3.org/2000/svg" xmlns:xlink="http://www.w3.org/1999/xlink" x="0px" y="0px"
	 width="32px" height="32px" viewBox="0 0 32 32" enable-background="new 0 0 32 32" xml:space="preserve">
<g>
	<path fill="#27AE60" d="M9.296,22.498L3,29.884C3,29.884,6.311,32,16.164,32S29,29.884,29,29.884l-6.572-7.879
		C22.428,22.005,16.417,21.915,9.296,22.498z"/>
</g>
<g>
	<path fill="#219452" d="M9.296,22.498l-1.048,1.229c0,0,8.806,3.873,16.938,1.585l-2.759-3.307
		C22.428,22.005,16.417,21.915,9.296,22.498z"/>
</g>
<path fill="#27AE60" d="M12.423,14.511L6,22.3c0,0,2.351,1.7,10.126,1.7S26,22.3,26,22.3l-6.548-7.98
	C19.452,14.319,17.697,15.551,12.423,14.511z"/>
<path fill="#219452" d="M12.423,14.511l-1.143,1.386c0,0,4.019,2.769,10.485,1.242l-2.313-2.819
	C19.452,14.319,17.697,15.551,12.423,14.511z"/>
<path fill="#27AE60" d="M16,5.539l-6.656,9.411c0,0,3.163,1.051,6.74,1.051s6.572-1.051,6.572-1.051L16,5.539z"/>
<polygon fill="#E74C3C" points="16,0 16.995,2.477 19.658,2.658 17.61,4.369 18.261,6.958 16,5.539 13.739,6.958 14.39,4.369 
	12.342,2.658 15.005,2.477 "/>
</svg>
