<?xml version="1.0" encoding="utf-8"?>
<!-- Generator: Adobe Illustrator 17.0.2, SVG Export Plug-In . SVG Version: 6.00 Build 0)  -->
<!DOCTYPE svg PUBLIC "-//W3C//DTD SVG 1.1//EN" "http://www.w3.org/Graphics/SVG/1.1/DTD/svg11.dtd">
<svg version="1.1" id="Layer_1" xmlns="http://www.w3.org/2000/svg" xmlns:xlink="http://www.w3.org/1999/xlink" x="0px" y="0px"
	 width="32px" height="32px" viewBox="0 0 32 32" enable-background="new 0 0 32 32" xml:space="preserve">
<ellipse transform="matrix(-0.7071 -0.7071 0.7071 -0.7071 47.3848 25.6274)" fill="none" stroke="#34495E" stroke-miterlimit="10" cx="29" cy="3" rx="1.339" ry="2.491"/>
<path fill="#E74C3C" d="M8.434,2.714C3.431,5.284,0.001,10.486,0.001,16.5c0,0.696,0.062,1.376,0.151,2.048l2.026,5.845
	c2.7,4.549,7.645,7.607,13.317,7.607c8.557,0,15.493-6.939,15.493-15.5c0-2.146-0.44-4.187-1.229-6.044
	c-0.219-0.515-0.803-1.285-0.215-2.882c0.344-0.934,0.602-1.988,0.68-2.377c0.078-0.389,0.026-0.597-0.334-0.989
	S28.12,2.369,27.735,2.08s-0.548-0.464-0.963-0.36c-0.415,0.104-1.446,0.379-2.356,0.725c-1.405,0.534-2.518-0.071-3.116-0.313
	C19.506,1.404,17.548,1,15.494,1c-0.862,0-1.702,0.088-2.525,0.224L8.434,2.714z"/>
<g>
	<path fill="#E74C3C" d="M15.491,1.982c8.009,0,14.525,6.516,14.525,14.525S23.5,31.032,15.491,31.032S0.966,24.516,0.966,16.507
		S7.481,1.982,15.491,1.982 M15.491,1.013c-8.557,0-15.493,6.937-15.493,15.493S6.934,32,15.491,32s15.493-6.937,15.493-15.493
		S24.047,1.013,15.491,1.013L15.491,1.013z"/>
</g>
<g>
	<path fill="#C0392B" d="M29.757,10.456c-0.219-0.515-0.803-1.285-0.215-2.882c0.344-0.934,0.602-1.988,0.68-2.377
		c0.078-0.389,0.026-0.597-0.334-0.989c-0.124-0.135-0.375-0.398-0.662-0.692c-1.351,0.906-2.777,2.026-2.777,2.026
		c-2.087-2.088-4.625-3.438-7.299-4.086c0.886,0.578,1.728,1.252,2.506,2.031c6.051,6.053,6.051,15.867,0,21.92
		c-3.953,3.955-9.507,5.307-14.572,4.094c0.142,0.092,0.285,0.182,0.43,0.27c0.117,0.071,0.234,0.142,0.353,0.209
		c0.197,0.112,0.396,0.22,0.598,0.324c0.173,0.088,0.348,0.17,0.523,0.251c0.165,0.077,0.328,0.157,0.496,0.229
		c0.341,0.143,0.686,0.274,1.034,0.392c0.118,0.04,0.239,0.074,0.358,0.111c0.269,0.084,0.539,0.162,0.811,0.231
		c0.125,0.032,0.251,0.061,0.377,0.09c0.283,0.064,0.568,0.12,0.854,0.168c0.11,0.018,0.218,0.04,0.329,0.056
		c0.385,0.056,0.771,0.101,1.158,0.128c0.011,0.001,0.022,0.003,0.032,0.003c0.384,0.026,0.768,0.033,1.152,0.031
		c0.495-0.003,0.985-0.026,1.468-0.074c0.059-0.006,0.117-0.018,0.176-0.025c0.421-0.047,0.838-0.11,1.248-0.191
		c0.158-0.031,0.314-0.071,0.471-0.107c0.314-0.072,0.625-0.149,0.931-0.24c0.165-0.049,0.328-0.102,0.492-0.156
		c0.301-0.1,0.598-0.208,0.89-0.326c0.149-0.06,0.298-0.12,0.445-0.185c0.311-0.136,0.615-0.285,0.914-0.441
		c0.12-0.062,0.242-0.122,0.361-0.188c0.33-0.183,0.651-0.381,0.966-0.587c0.084-0.055,0.17-0.104,0.253-0.161
		c0.363-0.247,0.713-0.511,1.053-0.788c0.033-0.027,0.068-0.05,0.101-0.078c0.608-0.503,1.165-1.062,1.689-1.651
		c0.136-0.153,0.275-0.289,0.408-0.451c2.205-2.678,3.53-6.108,3.53-9.848C30.987,14.354,30.547,12.313,29.757,10.456z"/>
</g>
<polygon fill="#FFF99D" points="21.076,23.454 23.569,26.521 24.88,22.434 28.56,20.609 25.426,18.303 25.208,14.108 21.959,16.769 
	18.144,16.001 19.271,19.952 17.132,23.673 "/>
<path fill="#F1C40F" d="M25.651,18.469c-0.616,2.3-1.773,4.479-3.464,6.351l1.382,1.701l1.311-4.087l3.68-1.825L25.651,18.469z"/>
<path fill="#FFF99D" d="M1.037,17.868l0.648-2.766l1.932,2.922l2.834,0.347l-1.379,2.848l0.986,3.484l-2.784-1.162l-0.212,0.172
	L3.058,23.71c-1.04-1.754-1.743-3.726-2.023-5.837L1.037,17.868z"/>
<polygon fill="#FFF99D" points="13.395,1.662 13.594,2.592 15.946,3.333 13.52,4.734 12.909,6.956 10.948,5.749 8.218,6.38 
	9.432,4.233 8.868,3.312 11.091,2.675 "/>
</svg>
