<?xml version="1.0" encoding="utf-8"?>
<!-- Generator: Adobe Illustrator 17.0.2, SVG Export Plug-In . SVG Version: 6.00 Build 0)  -->
<!DOCTYPE svg PUBLIC "-//W3C//DTD SVG 1.1//EN" "http://www.w3.org/Graphics/SVG/1.1/DTD/svg11.dtd">
<svg version="1.1" id="Layer_1" xmlns="http://www.w3.org/2000/svg" xmlns:xlink="http://www.w3.org/1999/xlink" x="0px" y="0px"
	 width="32px" height="32px" viewBox="0 0 32 32" enable-background="new 0 0 32 32" xml:space="preserve">
<path fill="#E67E22" d="M29,1.5C29,0.622,28.328,0,27.5,0S26,0.687,26,1.5c0,2.428-0.756,4.018-1.312,4.018
	C23.679,5.518,24,2.378,24,1.5S23.328,0,22.5,0S21,0.672,21,1.5c0,3.083,0.528,7.977-5,7.98c-5.528-0.003-5-4.897-5-7.98
	C11,0.672,10.328,0,9.5,0S8,0.622,8,1.5s0.321,4.018-0.688,4.018C6.756,5.518,6,3.928,6,1.5C6,0.687,5.328,0,4.5,0S3,0.622,3,1.5
	c0,7.8,4.415,9.499,12.995,9.5v0c0.002,0,0.003,0,0.005,0s0.003,0,0.005,0v0C24.585,10.999,29,9.3,29,1.5z"/>
<path fill="#B04121" d="M31,12.01c0,0-2.14,3.617-4.281,3.94c-2.186,0.33-4.995-1.069-4.995-1.069s1.715-3.509,3.682-3.806
	C28.057,10.675,31,12.01,31,12.01z"/>
<g>
	<path fill="#99391C" d="M25.684,15.987c-0.246-1.538-1.293-2.862-2.36-3.518c-0.954,1.09-1.601,2.412-1.601,2.412
		S23.739,15.881,25.684,15.987z"/>
</g>
<path fill="#B04121" d="M1,12.01c0,0,2.14,3.617,4.281,3.94c2.186,0.33,4.995-1.069,4.995-1.069s-1.715-3.509-3.682-3.806
	C3.943,10.675,1,12.01,1,12.01z"/>
<g>
	<path fill="#99391C" d="M6.316,15.987c0.246-1.538,0.836-2.96,1.697-4.181c1.306,1.114,2.264,3.074,2.264,3.074
		S8.261,15.881,6.316,15.987z"/>
</g>
<path fill="#B04121" d="M24.61,17c0-4.758-3.857-8.615-8.615-8.615S7.38,12.242,7.38,17c0,4.923,5.386,15,8.615,15
	S24.61,21.923,24.61,17z"/>
<circle fill="#FFFFFF" cx="20.5" cy="18.5" r="1.5"/>
<circle fill="#34495E" cx="20.5" cy="19.207" r="0.793"/>
<circle fill="#FFFFFF" cx="11.5" cy="18.5" r="1.5"/>
<circle fill="#34495E" cx="11.5" cy="19.207" r="0.793"/>
<path fill="#8A3319" d="M17,28.5c0-0.276,0.224-0.5,0.5-0.5c0.036,0,0.067,0.013,0.101,0.02C17.834,27.721,18,27.376,18,27.003
	c0-1.105-0.895-1-2-1s-2-0.105-2,1c0,0.373,0.166,0.719,0.4,1.018c0.034-0.007,0.065-0.02,0.1-0.02c0.276,0,0.5,0.224,0.5,0.5
	c0,0.027-0.011,0.05-0.015,0.076c0.37,0.264,0.76,0.427,1.015,0.427c0.255,0,0.646-0.163,1.015-0.427
	C17.011,28.55,17,28.527,17,28.5z"/>
</svg>
