<?xml version="1.0" encoding="utf-8"?>
<!-- Generator: Adobe Illustrator 17.0.2, SVG Export Plug-In . SVG Version: 6.00 Build 0)  -->
<!DOCTYPE svg PUBLIC "-//W3C//DTD SVG 1.1//EN" "http://www.w3.org/Graphics/SVG/1.1/DTD/svg11.dtd">
<svg version="1.1" id="Layer_1" xmlns="http://www.w3.org/2000/svg" xmlns:xlink="http://www.w3.org/1999/xlink" x="0px" y="0px"
	 width="32px" height="32px" viewBox="0 0 32 32" enable-background="new 0 0 32 32" xml:space="preserve">
<path fill="#F1C40F" d="M21.377,6.136C2.406,10.049,0,24.671,0,24.671l3.864-2.517c0,0-1.661,4.02-0.9,9.846l4.696-7.385
	c0,0,0.694,4.036,2.179,5.71c0,0,1.903-14.326,12.58-20.826c0.206-1.591,0.248-1.984,0.248-1.984S21.691,6.557,21.377,6.136z"/>
<path fill="#FFFFFF" d="M25.88,6.457C11.413,8.155,4.62,18.547,4.62,18.547l2.767-0.402c0,0-1.204,1.964-1.748,5.021l3.377-3.598
	c0,0,0.054,1.957,0.642,2.85C9.658,22.418,14.537,10.124,25.88,6.457z"/>
<polygon fill="#E74C3C" points="25.207,0 26.961,4.369 31.658,4.687 28.045,7.706 29.194,12.272 25.207,9.768 21.219,12.272 
	22.368,7.706 18.755,4.687 23.452,4.369 "/>
</svg>
