<?xml version="1.0" encoding="utf-8"?>
<!-- Generator: Adobe Illustrator 17.0.2, SVG Export Plug-In . SVG Version: 6.00 Build 0)  -->
<!DOCTYPE svg PUBLIC "-//W3C//DTD SVG 1.1//EN" "http://www.w3.org/Graphics/SVG/1.1/DTD/svg11.dtd">
<svg version="1.1" id="Layer_1" xmlns="http://www.w3.org/2000/svg" xmlns:xlink="http://www.w3.org/1999/xlink" x="0px" y="0px"
	 width="32px" height="32px" viewBox="0 0 32 32" enable-background="new 0 0 32 32" xml:space="preserve">
<path fill="#B04121" d="M30.566,9.725c-0.38-1.271-1.737-2-3.034-1.626C27.14,8.211,17.26,9.885,15.999,9.885
	c-1.26,0-11.141-1.674-11.533-1.787C3.174,7.726,1.812,8.452,1.432,9.725c-0.38,1.271,0.361,2.605,1.657,2.979
	c0.22,0.064,5.37,1.175,6.836,1.491c0.411,0.089,0.741,0.538,0.741,1.606c0,1.069,0,0.639,0,1.8c0,0.858-3.136,11.368-3.136,11.368
	c-0.355,1.279,0.413,2.598,1.715,2.947C9.46,31.972,9.677,32,9.889,32c1.075,0,2.061-0.702,2.357-1.769c0,0,2.671-5.984,2.984-6.76
	c0.463-1.15,1.097-1.067,1.546,0.023c0.303,0.737,2.974,6.736,2.974,6.736C20.048,31.298,21.033,32,22.108,32
	c0.212,0,0.429-0.028,0.644-0.085c1.302-0.349,2.07-1.668,1.715-2.947c0,0-3.136-10.513-3.136-11.368c0-1.157,0-0.694,0-1.8
	c0-1.106,0.341-1.52,0.759-1.61c1.461-0.315,6.598-1.423,6.818-1.487C30.204,12.33,30.946,10.996,30.566,9.725z"/>
<path fill="#B04121" d="M15.999,0c-2.761,0-5,2.239-5,5c0,2.761,2.239,5,5,5s5-2.239,5-5C20.999,2.239,18.76,0,15.999,0z"/>
<circle fill="#FFF99D" cx="18" cy="4" r="1"/>
<circle fill="#FFF99D" cx="14" cy="4" r="1"/>
<path fill="#FF9D9D" d="M18.144,7.436c-0.024,0.041-0.606,1.002-2.145,1.002s-2.12-0.961-2.145-1.002
	c-0.087-0.149-0.037-0.34,0.112-0.428c0.145-0.084,0.338-0.038,0.426,0.109c0.017,0.029,0.442,0.696,1.607,0.696
	s1.59-0.667,1.607-0.696c0.09-0.145,0.283-0.194,0.428-0.105C18.181,7.1,18.23,7.288,18.144,7.436z"/>
<path fill="#FFF99D" d="M12.895,28.776L8.07,27.141c-0.14,0.476-0.26,0.883-0.351,1.191l4.686,1.545
	C12.52,29.617,12.69,29.237,12.895,28.776z"/>
<path fill="#FFF99D" d="M19.102,28.776l4.825-1.635c0.14,0.476,0.26,0.883,0.351,1.191l-4.686,1.545
	C19.477,29.617,19.308,29.237,19.102,28.776z"/>
<path fill="#FF9D9D" d="M18.69,27.844l4.962-1.641c-0.11-0.376-0.226-0.775-0.346-1.188l-5.105,1.727
	C18.367,27.115,18.532,27.486,18.69,27.844z"/>
<path fill="#FF9D9D" d="M13.307,27.844l-4.962-1.641c0.11-0.376,0.226-0.775,0.346-1.188l5.105,1.727
	C13.631,27.115,13.466,27.486,13.307,27.844z"/>
<circle fill="#FFF99D" cx="16" cy="14" r="1"/>
<circle fill="#FFF99D" cx="16" cy="19" r="1"/>
<path fill="#FFF99D" d="M27.256,8.155c-0.244,0.047-0.642,0.118-1.147,0.206l1.154,4.709c0.485-0.106,0.897-0.196,1.19-0.262
	L27.256,8.155z"/>
<path fill="#FF9D9D" d="M24.977,8.556c-0.363,0.062-0.753,0.127-1.156,0.194l1.188,4.81c0.398-0.086,0.799-0.173,1.187-0.258
	L24.977,8.556z"/>
<path fill="#FFF99D" d="M4.742,8.155c0.244,0.047,0.642,0.118,1.147,0.206L4.735,13.07c-0.485-0.106-0.897-0.196-1.19-0.262
	L4.742,8.155z"/>
<path fill="#FF9D9D" d="M7.02,8.556C7.383,8.617,7.773,8.683,8.176,8.75l-1.188,4.81c-0.398-0.086-0.799-0.173-1.187-0.258
	L7.02,8.556z"/>
</svg>
