<?xml version="1.0" encoding="utf-8"?>
<!-- Generator: Adobe Illustrator 17.0.2, SVG Export Plug-In . SVG Version: 6.00 Build 0)  -->
<!DOCTYPE svg PUBLIC "-//W3C//DTD SVG 1.1//EN" "http://www.w3.org/Graphics/SVG/1.1/DTD/svg11.dtd">
<svg version="1.1" id="Layer_1" xmlns="http://www.w3.org/2000/svg" xmlns:xlink="http://www.w3.org/1999/xlink" x="0px" y="0px"
	 width="32px" height="32px" viewBox="0 0 32 32" enable-background="new 0 0 32 32" xml:space="preserve">
<path fill="#E74C3C" d="M1.074,20.024C1.434,11.781,7.154,2,15,2c8.574,0,13.729,7.592,15.911,10.122
	c-7.382-3.281-8.889-2.064-6.479,8.447c0,0-3.457,2.379-10.701,2.379S1.074,20.024,1.074,20.024z"/>
<path fill="#FFFFFF" d="M23.693,20.849c0,0-5.07,1.631-10.715,1.631c-5.594,0-11.238-1.528-11.238-1.528s-1.456,1.241-0.58,6.934
	c0.212,0.582,5.813,1.83,11.773,1.83c5.979,0,12.407-1.701,12.407-1.701L23.693,20.849z"/>
<path fill="#5FCCFF" d="M24.27,19.761c0,0-5.369,1.727-11.347,1.727c-5.924,0-11.901-1.618-11.901-1.618s-1.494,2.164-0.567,8.192
	C0.68,28.679,6.611,30,12.923,30c6.331,0,13.018-1.68,13.139-1.801C26.63,24.198,24.27,19.761,24.27,19.761z M13.027,28.371
	c-4.363,0-8.398-0.258-10.82-1.443c-0.773-2.061,0.258-4.946,0.258-4.946c1.799,0.485,6.106,1.288,10.458,1.288
	c4.366,0,8.301-0.968,10.049-1.391c0,0,1.546,3.349,0.876,4.74C22.353,27.496,17.39,28.371,13.027,28.371z"/>
<circle fill="#5FCCFF" cx="29" cy="11" r="3"/>
<circle fill="#FFFFFF" cx="29" cy="11" r="1.5"/>
</svg>
