<?xml version="1.0" encoding="utf-8"?>
<!-- Generator: Adobe Illustrator 17.0.2, SVG Export Plug-In . SVG Version: 6.00 Build 0)  -->
<!DOCTYPE svg PUBLIC "-//W3C//DTD SVG 1.1//EN" "http://www.w3.org/Graphics/SVG/1.1/DTD/svg11.dtd">
<svg version="1.1" id="Layer_1" xmlns="http://www.w3.org/2000/svg" xmlns:xlink="http://www.w3.org/1999/xlink" x="0px" y="0px"
	 width="32px" height="32px" viewBox="0 0 32 32" enable-background="new 0 0 32 32" xml:space="preserve">
<line fill="none" stroke="#5FCCFF" stroke-width="2" stroke-miterlimit="10" x1="0" y1="30.667" x2="28.308" y2="30.667"/>
<path fill="none" stroke="#5FCCFF" stroke-width="2" stroke-miterlimit="10" d="M1.231,30.667c3.1,0,6.154-2.314,6.154-6.154"/>
<path fill="none" stroke="#5FCCFF" stroke-width="2" stroke-miterlimit="10" d="M28.308,30.667c-4.634,0-6.154-4.923-6.154-4.923"/>
<path fill="#B04121" d="M23.973,17.333c-3.806,0-9.435-5.702-7.973-17.271c-4.374,0-5.661,1.57-5.948,4.002
	C7.796,4.065,4,4.553,4,6.005v7.42c0,3.985-1.333,4.711-1.333,9.549c0,1.284,0.287,2.079,0.287,2.079s0.803,0.28,3.305,0.28
	c8.919,0,13.455,1.333,17.418,1.333c6.068,0,6.99-2.462,6.99-2.462C30.667,19.992,28.417,17.333,23.973,17.333z"/>
<path fill="#E74C3C" d="M3.39,17.662c-0.351,1.348-0.723,2.756-0.723,5.313c0,1.284,0.287,2.079,0.287,2.079s0.803,0.28,3.305,0.28
	c1.332,0,2.567,0.03,3.716,0.08C11.016,17.833,3.703,16.459,3.39,17.662z"/>
<path fill="#E74C3C" d="M20.537,26.458c1.122,0.125,2.149,0.208,3.139,0.208c6.068,0,6.99-2.462,6.99-2.462
	c0-3.812-1.842-6.351-5.484-6.8C24.8,17.357,20.637,19.203,20.537,26.458z"/>
<path fill="none" stroke="#5FCCFF" stroke-width="2" stroke-miterlimit="10" d="M30.769,28.205c0,1.359-1.102,2.462-2.462,2.462"/>
<circle fill="#692714" cx="12.5" cy="9.5" r="1.5"/>
<circle fill="#692714" cx="14.5" cy="14.5" r="1.5"/>
<circle fill="#692714" cx="18.5" cy="18.5" r="1.5"/>
<line fill="none" stroke="#692714" stroke-width="2" stroke-linecap="round" stroke-linejoin="round" stroke-miterlimit="10" x1="18.5" y1="18.5" x2="20.828" y2="16.203"/>
<line fill="none" stroke="#692714" stroke-width="2" stroke-linecap="round" stroke-linejoin="round" stroke-miterlimit="10" x1="14.5" y1="14.5" x2="17.844" y2="12.75"/>
<line fill="none" stroke="#692714" stroke-width="2" stroke-linecap="round" stroke-linejoin="round" stroke-miterlimit="10" x1="12.5" y1="9.5" x2="16.203" y2="8.219"/>
<path fill="#692714" d="M10.052,4.065c0,0,2.019,0.187,2.146,2.071c0.379,5.608,2.903,7.957,2.903,7.957s-1.641-3.91-2.101-8.7
	C12.908,4.439,11.432,4.01,10.052,4.065z"/>
</svg>
