<?xml version="1.0" encoding="utf-8"?>
<!-- Generator: Adobe Illustrator 17.0.2, SVG Export Plug-In . SVG Version: 6.00 Build 0)  -->
<!DOCTYPE svg PUBLIC "-//W3C//DTD SVG 1.1//EN" "http://www.w3.org/Graphics/SVG/1.1/DTD/svg11.dtd">
<svg version="1.1" id="Layer_1" xmlns="http://www.w3.org/2000/svg" xmlns:xlink="http://www.w3.org/1999/xlink" x="0px" y="0px"
	 width="32px" height="32px" viewBox="0 0 32 32" enable-background="new 0 0 32 32" xml:space="preserve">
<circle fill="#F39C12" cx="16" cy="29" r="3"/>
<path fill="#E67E22" d="M13.233,27.842c0.863,0.075,1.771,0.127,2.763,0.127c0.995,0,1.906-0.052,2.771-0.128
	C18.313,26.76,17.246,26,16,26C14.754,26,13.686,26.76,13.233,27.842z"/>
<path fill="#F39C12" d="M23.996,15v-3c0-4.078-3.922-7-8-7C11.917,5,8,7.922,8,12v3l-5.304,7.687c0,0,3.264,4.282,13.3,4.282
	s13.3-4.282,13.3-4.282L23.996,15z"/>
<path fill="#F1C40F" d="M12,12v3.631l-4.637,7.914c0.703,0.469,2.638,1.114,3.873,1.199l3.096-8.82L14,12
	c0-4.078-0.01-5.214,1.996-7C14.395,5,12,7.922,12,12z"/>
<path fill="#E74C3C" d="M17.482,3.039c3.314-2.615,7.892-3.033,8.525-2.997c0,0.678-0.281,2.939-0.281,3.366
	s0.281,2.448,0.281,3.217c-2.895,0.071-8.616-2.676-8.616-2.676L17.482,3.039z"/>
<path fill="#C0392B" d="M17.392,3.949c0,0,2.804,0.018,4.704-0.535c-1.9-0.428-4.432-0.375-4.613-0.375"/>
<path fill="#E74C3C" d="M14.518,3.039c-3.314-2.615-7.892-3.033-8.525-2.997c0,0.678,0.281,2.939,0.281,3.366
	S5.993,5.855,5.993,6.625c2.895,0.071,8.616-2.676,8.616-2.676L14.518,3.039z"/>
<path fill="#C0392B" d="M14.608,3.949c0,0-2.804,0.018-4.704-0.535c1.9-0.428,4.432-0.375,4.613-0.375"/>
<path fill="#E74C3C" d="M18.663,4c0,0.736-0.597,1.333-1.333,1.333h-2.667c-0.736,0-1.333-0.597-1.333-1.333V2.667
	c0-0.736,0.597-1.333,1.333-1.333h2.667c0.736,0,1.333,0.597,1.333,1.333V4z"/>
<path fill="#C0392B" d="M17.329,4.333h-2.667c-0.736,0-1.333-0.597-1.333-1.333v1c0,0.736,0.597,1.333,1.333,1.333h2.667
	c0.736,0,1.333-0.597,1.333-1.333V3C18.663,3.736,18.066,4.333,17.329,4.333z"/>
</svg>
