<?xml version="1.0" encoding="utf-8"?>
<!-- Generator: Adobe Illustrator 17.0.2, SVG Export Plug-In . SVG Version: 6.00 Build 0)  -->
<!DOCTYPE svg PUBLIC "-//W3C//DTD SVG 1.1//EN" "http://www.w3.org/Graphics/SVG/1.1/DTD/svg11.dtd">
<svg version="1.1" id="Layer_1" xmlns="http://www.w3.org/2000/svg" xmlns:xlink="http://www.w3.org/1999/xlink" x="0px" y="0px"
	 width="32px" height="32px" viewBox="0 0 32 32" enable-background="new 0 0 32 32" xml:space="preserve">
<g>
	<path fill="#FFFFFF" d="M9.858,25.978c0.355,0.506,0.556,0.94,0.556,1.282v2.01c0,1.494,3.337,2.272,7.919,2.272
		c4.582,0,7.985-0.742,7.985-2.235V27.26c0-1.224,0.098-1.52,0.098-1.52C26.379,25.895,10.719,26.27,9.858,25.978z"/>
</g>
<g>
	<path fill="#5FCCFF" d="M25.303,26.016c-0.034,0.313-0.204,3.49-0.204,3.49c-0.772,0.295-3.158,0.79-6.701,0.79
		c-3.509,0-5.97-0.923-6.726-1.223c0,0-0.087-2.623-0.127-2.853c-0.713-0.611-1.376-0.713-2.302-0.248
		c0.385,0.548,0.602,1.019,0.602,1.389v2.177c0,1.618,3.616,2.462,8.58,2.462c4.964,0,8.651-0.804,8.651-2.422v-2.217
		c0-1.326,0.106-1.647,0.106-1.647C26.934,25.66,26.017,25.685,25.303,26.016z"/>
</g>
<g>
	<g>
		<path fill="#E74C3C" d="M19.1,0C10.483,0,8.674,5.611,8.674,10.317c0,0.851,0.147,3.752,0.199,4.88
			c-0.236-0.146-0.497-0.253-0.724-0.407c-2.371-1.611-4.947-1.756-6.182,0.317c-1.632,2.741,1.488,5.59,1.488,5.59
			c2.953,2.226,4.888,3.99,5.786,5.274c6.758,2.294,17.806,0.323,17.941-0.257c0.267-1.147,0.624-2.167,0.924-3.454
			c0.666-2.854,1.419-6.088,1.419-9.622C29.526,3.31,23.91,0,19.1,0z"/>
	</g>
</g>
<polygon fill="#FFFFFF" points="18.403,6.839 18.702,14 18.403,21.161 19.597,21.161 19.298,14 19.597,6.839 "/>
<polygon fill="#FFFFFF" points="12.5,10.936 18.851,14.258 24.903,18.097 25.5,17.064 19.149,13.742 13.097,9.903 "/>
<polygon fill="#FFFFFF" points="25.5,10.936 19.149,14.258 13.097,18.097 12.5,17.064 18.851,13.742 24.903,9.903 "/>
<path fill="#FFFFFF" d="M20.368,7.611L19,9.856l-1.368-2.246l-0.844,0.844l1.79,1.79c0.117,0.117,0.269,0.175,0.422,0.175
	s0.305-0.058,0.422-0.175l1.79-1.79L20.368,7.611z"/>
<path fill="#FFFFFF" d="M17.632,20.389L19,18.144l1.368,2.246l0.844-0.844l-1.79-1.79c-0.117-0.117-0.269-0.175-0.422-0.175
	s-0.305,0.058-0.422,0.175l-1.79,1.79L17.632,20.389z"/>
<path fill="#FFFFFF" d="M14.151,9.62l1.261,2.308l-2.629,0.062l0.309,1.153l2.446-0.655c0.159-0.043,0.286-0.146,0.362-0.278
	c0.076-0.132,0.102-0.294,0.06-0.453l-0.655-2.446L14.151,9.62z"/>
<path fill="#FFFFFF" d="M23.849,18.38l-1.261-2.308l2.629-0.062l-0.309-1.153l-2.446,0.655c-0.159,0.043-0.286,0.146-0.362,0.278
	c-0.076,0.132-0.102,0.294-0.06,0.453l0.655,2.446L23.849,18.38z"/>
<path fill="#FFFFFF" d="M23.849,9.62l-1.261,2.308l2.629,0.062l-0.309,1.153l-2.446-0.655c-0.159-0.043-0.286-0.146-0.362-0.278
	c-0.076-0.132-0.102-0.294-0.06-0.453l0.655-2.446L23.849,9.62z"/>
<path fill="#FFFFFF" d="M14.151,18.38l1.261-2.308l-2.629-0.062l0.309-1.153l2.446,0.655c0.159,0.043,0.286,0.146,0.362,0.278
	c0.076,0.132,0.102,0.294,0.06,0.453l-0.655,2.446L14.151,18.38z"/>
<path fill="#FFFFFF" d="M22.464,12l-2-0.536L19,10l-1.464,1.464l-2,0.536l0.536,2l-0.536,2l2,0.536L19,18l1.464-1.464l2-0.536
	l-0.536-2L22.464,12z M21.383,15.376l-1.376,0.368L19,16.751l-1.007-1.007l-1.376-0.368L16.986,14l-0.368-1.376l1.376-0.368
	L19,11.249l1.007,1.007l1.376,0.368L21.014,14L21.383,15.376z"/>
</svg>
