<?xml version="1.0" encoding="utf-8"?>
<!-- Generator: Adobe Illustrator 17.0.2, SVG Export Plug-In . SVG Version: 6.00 Build 0)  -->
<!DOCTYPE svg PUBLIC "-//W3C//DTD SVG 1.1//EN" "http://www.w3.org/Graphics/SVG/1.1/DTD/svg11.dtd">
<svg version="1.1" id="Layer_1" xmlns="http://www.w3.org/2000/svg" xmlns:xlink="http://www.w3.org/1999/xlink" x="0px" y="0px"
	 width="32px" height="32px" viewBox="0 0 32 32" enable-background="new 0 0 32 32" xml:space="preserve">
<path fill="#FFFFFF" d="M6.367,14.42c0.301-1.396,0.577-2.879,0.608-4.309c0.03-1.399,0.119-2.5,0.706-3.805
	c0.843-1.874,3.325-3.224,5.32-3.423c1.016-0.101,1.829,0.248,2.791,0.391c1.867,0.276,3.756-0.527,5.621,0.052
	c2.927,0.909,3.289,5.211,3.804,7.684c0.328,1.576,0.881,3.208,0.948,4.815c0.112,2.688-0.135,5.281-1.14,7.799
	c-0.581,1.454-1.304,2.481-2.647,3.27c-1.333,0.784-2.916,1.624-4.418,1.999c-3.332,0.831-6.328-0.507-8.865-2.633
	c-2.336-1.958-3.958-4.897-3.596-7.975C5.655,16.954,6.087,15.72,6.367,14.42z"/>
<path fill="#E74C3C" d="M25.333,28H16H6.667c-0.553,0-1,0.448-1,1s0.447,1,1,1H8c-0.553,0-1,0.448-1,1s0.447,1,1,1
	c3.451,0,5.936-0.306,7.385-0.91c0.243-0.101,0.439-0.21,0.615-0.32c0.176,0.11,0.372,0.218,0.615,0.32
	C18.064,31.694,20.549,32,24,32c0.553,0,1-0.448,1-1s-0.447-1-1-1h1.333c0.553,0,1-0.448,1-1S25.886,28,25.333,28z"/>
<circle fill="#243140" cx="18.667" cy="10.667" r="1.333"/>
<circle fill="#243140" cx="13.333" cy="10.667" r="1.333"/>
<path fill="#E74C3C" d="M16,12.186c0,0-1.135,0.828-2.667,1.271C14.122,15.518,16,16,16,16s1.878-0.482,2.667-2.542
	C17.135,13.014,16,12.186,16,12.186z"/>
<path fill="#34495E" d="M27.642,21.524c0,0-0.108-2.908,0.542-6.407c1.287,3.419,3.911,5.365,3.814,6.638
	C30.071,23.147,27.642,21.524,27.642,21.524z"/>
<path fill="#34495E" d="M4.358,21.524c0,0,0.108-2.908-0.542-6.407c-1.287,3.419-3.911,5.365-3.814,6.638
	C1.929,23.147,4.358,21.524,4.358,21.524z"/>
<path fill="#34495E" d="M26.953,11.003C26.953,3.423,20.934,0,16,0S5.047,3.423,5.047,11.003c-0.098,0.811-1.383,4.097-1.383,4.944
	c0,8.807,3.568,14.72,12.336,14.72s12.336-5.913,12.336-14.72C28.336,15.1,27.051,11.814,26.953,11.003z M16,26.987
	c-3.89,0-8.635-1.844-8.635-8.653c0-3.272,1.234-4.841,1.234-4.841s-2.364-8.876,4.318-8.876c1.663,0,2.525,1.582,3.084,1.582
	c0.559,0,1.658-1.582,3.084-1.582c6.682,0,4.318,8.876,4.318,8.876s1.234,1.569,1.234,4.841C24.635,25.143,19.89,26.987,16,26.987z"
	/>
</svg>
