<?xml version="1.0" encoding="utf-8"?>
<!-- Generator: Adobe Illustrator 17.0.2, SVG Export Plug-In . SVG Version: 6.00 Build 0)  -->
<!DOCTYPE svg PUBLIC "-//W3C//DTD SVG 1.1//EN" "http://www.w3.org/Graphics/SVG/1.1/DTD/svg11.dtd">
<svg version="1.1" id="Layer_1" xmlns="http://www.w3.org/2000/svg" xmlns:xlink="http://www.w3.org/1999/xlink" x="0px" y="0px"
	 width="32px" height="32px" viewBox="0 0 32 32" enable-background="new 0 0 32 32" xml:space="preserve">
<path fill="#FFFFFF" d="M31.264,18.664c-0.187-0.52-0.485-1.039-1.222-1.633c0.233-0.435,0.362-0.929,0.362-1.448
	c0-1.415-0.79-2.632-2.512-2.901c-0.138-0.352,0.01-0.624-0.007-0.658c-0.317-0.636-23.453-0.636-23.77,0
	c-0.016,0.034,0.131,0.306-0.007,0.658c-1.722,0.269-2.512,1.486-2.512,2.901c0,0.518,0.129,1.013,0.362,1.448
	c-0.736,0.594-1.034,1.114-1.222,1.633c-0.363,1.01,0.065,2.358,0.789,3.111C0.449,22.851,0.6,25.183,1.31,26.241
	c1.209,1.802,2.833,1.625,3.649,1.715c-0.057,0.753,0.33,2.111,1.214,2.65c1.763,1.074,3.632,0.807,4.641,0.04
	c1.206,1.082,3.221,1.423,5.142,0.183c1.736,1.302,4.464,0.93,5.269-0.527c0.785,1.011,2.581,1.487,4.601,0.303
	c0.893-0.524,1.271-1.897,1.214-2.65c0.815-0.091,2.44,0.086,3.649-1.715c0.71-1.058,0.861-3.39-0.215-4.466
	C31.198,21.021,31.627,19.674,31.264,18.664z"/>
<path fill="#EAB39C" d="M27.893,12.556c0,0,0.187,1.719-0.981,3.946c-1.168,2.226-3.607,3.294-4.61,3.438s-3.4-0.915-3.635-0.78
	c-0.236,0.135-0.691,1.497-2.435,1.282c-1.743-0.215-2.011-0.344-2.899-1.282c-0.888-0.938-1.675,0.852-3.504,0.565
	s-3.669-0.57-4.742-3.223s-0.556-4.098-0.556-4.098c1.803,0.072,3.864,1.299,9.097,1.299S26.89,12.915,27.893,12.556z"/>
<path fill="#5FCCFF" d="M31.759,18.565c-0.193-0.536-0.501-1.073-1.261-1.686c0.24-0.449,0.374-0.96,0.374-1.495
	c0-1.461-0.816-2.717-2.594-2.995c-0.143-0.363,0.01-0.644-0.007-0.679c-0.327-0.656-2.288-0.003-1.966,0.657
	c0.002,0.004,0.585,0.695,0.878,1.207c0.987-0.183,1.937-0.025,2.377,1.207c0.44,1.232-0.913,2.532-0.913,2.532
	s1.849-0.047,1.742,2.09c-0.072,1.438-2.054,2.097-2.054,2.097s2.387,1.71,1.36,3.566c-1.193,2.156-3.971,1.156-3.971,1.156
	s0.439,2.376-1.158,3.225c-1.996,1.06-3.008-0.016-3.296-0.56c-0.256,1.408-4.365,2.331-5.249,0.416
	c-1.229,2.267-5.057,1.12-5.165-0.49c-0.34,0.298-1.423,1.694-3.418,0.634c-1.597-0.848-1.158-3.225-1.158-3.225
	s-2.778,1-3.971-1.156C1.28,23.21,3.667,21.5,3.667,21.5s-1.982-0.659-2.054-2.097c-0.107-2.137,1.742-2.09,1.742-2.09
	s-1.353-1.301-0.913-2.532c0.44-1.231,1.509-1.567,2.497-1.385c0.293-0.512,0.756-1.025,0.758-1.029
	c0.322-0.66-1.639-1.314-1.966-0.657c-0.017,0.035,0.136,0.316-0.007,0.679c-1.778,0.278-2.594,1.534-2.594,2.995
	c0,0.535,0.133,1.046,0.374,1.495c-0.76,0.613-1.068,1.15-1.261,1.686c-0.375,1.043,0.068,2.434,0.815,3.212
	c-1.111,1.111-0.955,3.518-0.222,4.611c1.248,1.86,2.925,1.677,3.767,1.771c-0.059,0.778,0.341,2.18,1.254,2.736
	c1.821,1.109,3.75,0.833,4.792,0.042c1.245,1.118,3.325,1.47,5.309,0.189c1.792,1.344,4.609,0.96,5.441-0.544
	c0.81,1.043,2.665,1.535,4.75,0.313c0.922-0.541,1.312-1.958,1.254-2.736c0.842-0.094,2.519,0.089,3.767-1.771
	c0.733-1.093,0.889-3.5-0.222-4.611C31.692,20.999,32.134,19.608,31.759,18.565z"/>
<path fill="#E19271" d="M18.646,17.424c-0.36,1.771-1.506,2.268-2.646,2.268s-2.286-0.497-2.646-2.268
	c-1.175,1.069-3.33,3.566-8.267-0.922c0.66,1.342,1.951,5.771,7.882,3.519c0.557,0.708,1.51,1.312,3.031,1.312
	s2.474-0.604,3.031-1.312c5.931,2.252,7.222-2.177,7.882-3.519C21.976,20.99,19.821,18.493,18.646,17.424z"/>
<path fill="#EC7063" d="M16,23.267c-3.571,0-4.4-1.689-4.433-1.723c0,0,1.335,3.71,4.433,3.71s4.433-3.71,4.433-3.71
	C20.4,21.578,19.571,23.267,16,23.267z"/>
<path fill="#34495E" d="M22.667,14c0,1.105-0.895,2-2,2c-1.105,0-2-0.895-2-2s0.895-0.667,2-0.667
	C21.771,13.333,22.667,12.895,22.667,14z"/>
<path fill="#34495E" d="M13.333,14c0,1.105-0.895,2-2,2s-2-0.895-2-2s0.895-0.667,2-0.667S13.333,12.895,13.333,14z"/>
<path fill="#E74C3C" d="M5.219,4.719C7.97,1.837,10.321,0,17.231,0c4.923,0,10.42,1.542,12.308,6.154
	c-1.266-2.101-2.981-1.769-3.692,0c0,0-2.55,1.513-9.689,1.513S5.219,4.719,5.219,4.719z"/>
<path fill="#FFFFFF" d="M27.962,4.237c0,0-4.642,1.814-11.962,1.814c-5.861,0-10.846-1.392-10.846-1.392l-2.346,8.047
	c0,0,5.413,2.166,13.192,2.166c6.247,0,13.656-1.84,13.656-1.84L27.962,4.237z"/>
<path fill="#5FCCFF" d="M27.962,4.237c0,0-4.642,1.814-11.962,1.814c-5.861,0-10.846-1.392-10.846-1.392S3.705,5.246,2.808,8.322
	s0,4.384,0,4.384S8.221,14.872,16,14.872c6.247,0,13.656-1.84,13.656-1.84s0.453-1.806-0.117-4.53S27.962,4.237,27.962,4.237z
	 M15.944,12.667c-4.236,0-9.318-0.727-11.336-1.206c0,0-0.679-0.616-0.201-2.498S5.8,6.769,5.8,6.769
	c1.793,0.406,5.986,1.286,10.311,1.286c5.018,0,9.237-1.111,10.949-1.525l1.155,4.647C26.192,11.599,20.241,12.667,15.944,12.667z"
	/>
<path fill="#306DAB" d="M25.656,7.387c0,2.13,2.118,3.959,4.165,4.16c0.163-3.972-1.763-6.979-1.763-6.979s-0.021,0.044-0.314,0.142
	C26.671,5.453,25.656,5.983,25.656,7.387z"/>
<circle fill="#5FCCFF" cx="29" cy="7" r="3"/>
<circle fill="#FFFFFF" cx="29" cy="7" r="1.5"/>
</svg>
