<?xml version="1.0" encoding="utf-8"?>
<!-- Generator: Adobe Illustrator 17.0.2, SVG Export Plug-In . SVG Version: 6.00 Build 0)  -->
<!DOCTYPE svg PUBLIC "-//W3C//DTD SVG 1.1//EN" "http://www.w3.org/Graphics/SVG/1.1/DTD/svg11.dtd">
<svg version="1.1" id="Layer_1" xmlns="http://www.w3.org/2000/svg" xmlns:xlink="http://www.w3.org/1999/xlink" x="0px" y="0px"
	 width="32px" height="32px" viewBox="0 0 32 32" enable-background="new 0 0 32 32" xml:space="preserve">
<path fill="none" stroke="#5FCCFF" stroke-width="2" stroke-miterlimit="10" d="M0,30.991h28.333c1.473,0,2.667-1.194,2.667-2.667
	c0-0.482-0.128-0.934-0.351-1.324"/>
<path fill="#5FCCFF" d="M26.25,30.085l-0.809,1.83c-4.262-1.882-5.441-6.48-5.489-6.675l1.941-0.479
	C21.902,24.796,22.9,28.607,26.25,30.085z M3.609,30.009C3.611,30.009,3.641,30,3.692,30v2c1.979,0,4.692-4.465,4.692-7h-2
	C6.385,26.928,4.285,29.792,3.609,30.009z"/>
<g>
	<path fill="#3498DB" d="M21.894,24.76l-1.941,0.479c0.018,0.075,0.205,0.795,0.663,1.76c1.038,0,1.839,0,2.277,0
		C22.171,25.807,21.898,24.779,21.894,24.76z"/>
	<path fill="#3498DB" d="M8.385,25h-2c0,0.611-0.211,1.315-0.521,2c0.511,0,1.243,0,2.12,0C8.234,26.283,8.385,25.589,8.385,25z"/>
</g>
<path fill="#E74C3C" d="M29.578,15c-1.312,0-2.063,0.514-3.567,2.722C24.75,20.057,22.945,20,22.945,20c-0.377,0-3.783,0-4.443,0
	c-2.224-0.701-2.677-1.924-3.999-5.272C13.651,12.57,12.559,11,10.359,11c-2.885,0-7.211,0-7.211,0C1.235,11,0,11.999,0,14
	c0,0,3.964-0.707,1.59,4.571C-0.416,23.029,3.345,26,5.063,26c0,0,16.889,0,18.132,0c1.995,0,3.36-0.902,4.315-3.141
	c0.656-1.538,0.6-5.031,1.616-5.031C29.125,18.44,29.766,19,30.5,19c0.676,0,1.5-0.555,1.5-1.578C32,15.773,30.929,15,29.578,15z"/>
<polygon fill="#FFFFFF" points="6.5,13 7.044,14.354 8.5,14.453 7.38,15.389 7.736,16.804 6.5,16.028 5.264,16.804 5.62,15.389 
	4.5,14.453 5.956,14.354 "/>
<polygon fill="#FFFFFF" points="15.5,20.947 15.908,21.964 17.002,22.039 16.161,22.741 16.428,23.804 15.5,23.221 14.572,23.804 
	14.839,22.741 13.998,22.039 15.092,21.964 "/>
<polygon fill="#FFFFFF" points="8.5,19 9.195,20.732 11.057,20.858 9.625,22.054 10.08,23.864 8.5,22.872 6.92,23.864 7.375,22.054 
	5.943,20.858 7.805,20.732 "/>
</svg>
