<?xml version="1.0" encoding="utf-8"?>
<!-- Generator: Adobe Illustrator 17.0.2, SVG Export Plug-In . SVG Version: 6.00 Build 0)  -->
<!DOCTYPE svg PUBLIC "-//W3C//DTD SVG 1.1//EN" "http://www.w3.org/Graphics/SVG/1.1/DTD/svg11.dtd">
<svg version="1.1" id="Layer_1" xmlns="http://www.w3.org/2000/svg" xmlns:xlink="http://www.w3.org/1999/xlink" x="0px" y="0px"
	 width="32px" height="32px" viewBox="0 0 32 32" enable-background="new 0 0 32 32" xml:space="preserve">
<circle fill="#D4F1FF" cx="16" cy="18.374" r="12.539"/>
<circle fill="#FFFFFF" cx="14.239" cy="17.613" r="10.778"/>
<circle fill="#333333" cx="22" cy="16.667" r="2"/>
<circle fill="#333333" cx="12.667" cy="16.667" r="2"/>
<path fill="#F39C12" d="M26.272,21.333c0,0-6.132,2.667-7.605,2.667S16,22.806,16,21.333s1.194-2.667,2.667-2.667
	S26.272,21.333,26.272,21.333z"/>
<path fill="#E57E22" d="M26.272,21.333c0,0-6.132,2.667-7.605,2.667S16,22.806,16,21.333H26.272z"/>
<path fill="#333333" d="M17.353,26.264c-1.963,0-3.709-0.733-4.925-1.877c0.802,2.032,2.703,3.462,4.925,3.462
	c2.221,0,4.122-1.43,4.924-3.462C21.061,25.531,19.316,26.264,17.353,26.264z"/>
<path fill="#5FCCFF" d="M26.076,9.961c-0.199,0.207-0.416,0.395-0.626,0.59c1.76,2.124,2.819,4.849,2.819,7.823
	c0,6.776-5.493,12.268-12.268,12.268S3.732,25.149,3.732,18.374c0-3.018,1.095-5.778,2.902-7.915
	c-0.209-0.197-0.424-0.387-0.621-0.596c-2.075,2.351-3.346,5.429-3.346,8.804C2.667,26.018,8.648,32,16,32
	s13.333-5.982,13.333-13.333C29.333,15.339,28.099,12.299,26.076,9.961z"/>
<path fill="#34495E" d="M24.857,6.279c0.502-1.451,1.01-2.936,1.01-2.991c0-1.797-4.417-3.253-9.867-3.253S6.133,1.491,6.133,3.287
	c0,0.055,0.573,1.506,1.144,2.941c-2.943,1.016-4.816,2.534-4.816,4.233C2.462,13.52,8.523,16,16,16s13.538-2.48,13.538-5.538
	C29.538,8.79,27.72,7.294,24.857,6.279z"/>
<path fill="#243140" d="M23.887,9.071c0,0-1.69,1.91-7.736,1.91s-7.736-1.91-7.736-1.91L6.133,3.287c0,0,1.255,2.852,10.04,2.852
	s9.693-2.852,9.693-2.852L23.887,9.071z"/>
<path fill="#E74C3C" d="M23.887,9.071c0,0-1.69,1.91-7.736,1.91s-7.736-1.91-7.736-1.91S8.024,8.032,7.567,6.809
	c0.714,0.488,3.057,1.711,8.607,1.711c5.117,0,7.507-1.04,8.409-1.585C24.204,8.102,23.887,9.071,23.887,9.071z"/>
</svg>
