<?xml version="1.0" encoding="utf-8"?>
<!-- Generator: Adobe Illustrator 17.0.2, SVG Export Plug-In . SVG Version: 6.00 Build 0)  -->
<!DOCTYPE svg PUBLIC "-//W3C//DTD SVG 1.1//EN" "http://www.w3.org/Graphics/SVG/1.1/DTD/svg11.dtd">
<svg version="1.1" id="Layer_1" xmlns="http://www.w3.org/2000/svg" xmlns:xlink="http://www.w3.org/1999/xlink" x="0px" y="0px"
	 width="32px" height="32px" viewBox="0 0 32 32" enable-background="new 0 0 32 32" xml:space="preserve">
<path fill="#FFFFFF" d="M21.331,19.549c-0.542-0.997-0.598-1.67-0.601-1.722c0.495-1.461,2.677-6.267,3.7-8.652L12.814,4.113
	c-0.889,1.99-2.26,4.524-2.42,5.148c-0.523,1.046-1.419,2.701-2.019,4.2c-1.584,2.323-1.877,3.57-1.78,5.183
	c0.049,0.805,0.886,1.83,1.417,2.515c0.369,0.476,3.512,7.04,5.258,8.676c1.052,0.986,2.36,1.389,3.635,1.389
	c1.091,0,2.12-0.265,3.408-1.012c2.453-1.42,3.097-4.511,2.771-6.252C22.915,23.062,22.308,21.35,21.331,19.549z"/>
<path fill="#5FCCFF" d="M21.62,19.643c-0.569-1.047-0.628-1.752-0.631-1.808c0.519-1.534,2.81-6.578,3.883-9.081L12.681,3.441
	c-0.933,2.088-2.372,4.748-2.54,5.403c-0.548,1.098-1.489,2.835-2.119,4.409c-1.663,2.439-1.97,3.747-1.868,5.44
	c0.051,0.845,0.93,1.921,1.487,2.64c0.388,0.5,3.686,7.389,5.518,9.106c1.105,1.035,2.477,1.458,3.815,1.458
	c1.145,0,2.225-0.278,3.577-1.062c2.575-1.49,3.251-4.734,2.908-6.562C23.283,23.329,22.645,21.532,21.62,19.643z M19.536,29.698
	c-1.95,1.129-4.785-0.011-6.247-1.088c-1.245-0.918-1.695-3.071-3.154-6.063c-0.556-1.139-2.037-2.478-2.396-3.76
	c-0.291-1.039,0.146-2.832,1.069-4.166c1.429-2.064,2.205-4.586,2.249-4.682c0.265-0.591,1.576-3.025,2.396-4.424l9.437,3.908
	c0,0-2.051,3.845-2.429,4.346c-2.769,4.538-0.682,5.222,0.107,6.676c0.954,1.756,1.4,2.726,1.585,3.318
	C22.706,25.532,21.235,28.715,19.536,29.698z"/>
<path fill="#E74C3C" d="M22.59,13.963c-0.618,1.431-1.023,2.398-1.38,3.3c-0.345,0.87,0.011,1.448,0.652,2.84
	c1.006,2.184,1.457,3.422,1.597,4.17c-0.346-0.077-4.561-0.259-6.729,0.996c-2.168,1.255-4.593,3.434-4.467,4.103
	c-2.13-2.433-3.74-6.325-4.35-7.577c0.82-0.718,4.01-2.689,4.01-4.103s-2.404-3.534-3.901-4.439
	c0.806-2.097,2.119-4.409,2.119-4.409S17.258,12.231,22.59,13.963z"/>
<path fill="#5FCCFF" d="M14.605,1.46c-0.286-0.664-1.014-1.459-2.896-1.459c-1.897,0-2.636,0.798-2.922,1.466
	c-0.763,1.788,2.443,4.641,2.89,5.334C12.97,5.152,15.325,3.13,14.605,1.46z M11.748,5.352c0,0-0.978-1.355-1.244-2.511
	c-0.144-0.625,0.391-1.244,1.089-1.244c0.646,0,1.733,0.111,1.355,1.111C12.677,3.424,11.748,5.352,11.748,5.352z"/>
</svg>
